<?xml version="1.0" standalone="no"?>
<!DOCTYPE svg PUBLIC "-//W3C//DTD SVG 20010904//EN"
 "http://www.w3.org/TR/2001/REC-SVG-20010904/DTD/svg10.dtd">
<svg version="1.0" xmlns="http://www.w3.org/2000/svg"
 width="8000.000000pt" height="8000.000000pt" viewBox="0 0 8000.000000 8000.000000"
 preserveAspectRatio="xMidYMid meet">

<g transform="translate(0.000000,8000.000000) scale(0.100000,-0.100000)"
fill="#000000" stroke="none">
<path d="M39135 73624 c-49 -2 -227 -8 -395 -14 -1792 -63 -3613 -277 -5385
-631 -710 -142 -1814 -403 -1870 -442 -18 -12 -25 -14 -17 -5 11 13 3 13 -55
-3 -38 -11 -75 -22 -83 -26 -8 -3 -19 -5 -23 -4 -8 1 -109 -25 -137 -36 -8 -4
-19 -7 -25 -8 -5 0 -9 -7 -7 -15 2 -10 0 -11 -10 -2 -20 16 -98 -5 -98 -26 0
-12 -3 -13 -11 -5 -8 8 -21 8 -43 1 -17 -5 -38 -11 -46 -13 -8 -2 -16 -4 -17
-5 -3 -3 -7 -4 -56 -13 -21 -5 -35 -12 -32 -16 2 -5 -14 -9 -36 -9 -22 -1 -46
-5 -52 -10 -7 -5 -30 -12 -51 -15 -21 -4 -49 -16 -61 -27 -15 -14 -25 -18 -30
-11 -3 6 -11 11 -16 11 -6 0 -8 -3 -6 -7 3 -5 -11 -9 -31 -10 -34 -2 -70 -29
-56 -42 3 -3 9 1 14 9 6 10 10 -47 10 -157 0 -169 1 -173 21 -173 11 0 28 8
37 18 10 10 13 12 8 4 -8 -11 -4 -12 20 -6 16 4 38 10 49 14 11 4 23 7 26 6 4
0 17 8 30 19 12 11 19 14 15 8 -9 -17 -1 -16 34 2 l29 15 3 165 c2 98 -1 166
-6 168 -6 2 -3 6 5 9 12 5 14 -20 11 -174 l-3 -179 35 15 c20 8 36 13 36 10 0
-2 17 3 38 11 20 9 38 15 40 15 5 -3 67 12 77 18 5 3 16 7 25 8 8 0 98 24 200
52 193 53 597 159 640 168 14 3 95 23 180 44 1718 430 3697 738 5585 869 844
59 1351 75 2350 76 862 0 1108 -6 1775 -40 4113 -214 8109 -1179 11865 -2868
782 -351 1752 -836 2470 -1235 1763 -978 3319 -2031 4910 -3323 391 -317 1018
-858 1360 -1173 1100 -1013 1979 -1916 2871 -2951 2221 -2579 4022 -5467 5364
-8605 1492 -3490 2367 -7171 2605 -10960 45 -728 60 -1244 60 -2120 0 -876
-15 -1392 -60 -2120 -221 -3529 -995 -6962 -2307 -10240 -1512 -3774 -3683
-7212 -6438 -10195 -820 -887 -1793 -1833 -2645 -2570 -82 -72 -159 -138 -170
-148 -34 -31 -545 -459 -640 -536 -1633 -1321 -3143 -2343 -4910 -3323 -718
-399 -1688 -884 -2470 -1235 -3784 -1702 -7819 -2670 -11965 -2873 -1034 -50
-2222 -52 -3240 -5 -2440 114 -4840 488 -7148 1115 -123 33 -228 58 -234 54
-7 -5 -8 -2 -3 6 6 10 4 12 -8 7 -9 -3 -19 -2 -22 2 -4 7 -63 23 -85 23 -3 0
-12 4 -21 9 -9 4 -27 10 -40 13 -13 3 -45 12 -71 20 -27 8 -48 12 -48 9 0 -4
-5 -2 -12 5 -16 16 -31 15 -22 0 4 -7 -1 -5 -12 4 -10 9 -23 17 -29 18 -5 2
-19 6 -30 10 -11 4 -33 10 -49 14 -25 6 -28 5 -17 -7 9 -12 9 -17 0 -23 -7 -4
-10 -3 -6 2 9 15 -16 40 -43 46 l-25 4 3 -175 c1 -115 -1 -171 -7 -161 -6 8
-12 12 -15 9 -13 -12 21 -40 51 -42 18 -1 33 -6 33 -11 0 -4 9 -6 20 -3 11 3
18 2 15 -2 -2 -5 21 -14 53 -20 31 -7 65 -17 74 -22 10 -5 24 -9 33 -9 8 0 34
-7 58 -15 24 -8 54 -17 68 -19 13 -3 24 -5 24 -6 0 -1 7 -3 15 -5 8 -2 29 -8
46 -13 22 -7 35 -7 43 1 8 8 11 7 11 -4 0 -12 33 -25 123 -49 67 -18 131 -34
142 -35 11 -2 27 -5 35 -9 8 -3 45 -14 83 -25 58 -16 66 -16 55 -3 -8 9 -1 7
17 -5 35 -24 699 -190 1230 -307 1799 -397 3601 -641 5455 -741 665 -35 868
-40 1825 -40 958 0 1174 5 1845 41 2741 146 5451 626 8064 1430 116 36 222 69
236 74 14 5 126 41 250 81 481 153 1141 387 1693 600 3182 1227 6120 2905
8786 5017 264 208 709 574 901 740 41 35 86 74 100 86 269 230 651 567 860
761 30 28 91 85 135 125 603 556 1454 1416 2035 2055 2886 3175 5118 6832
6621 10851 1295 3463 1988 7033 2100 10819 11 361 6 1968 -6 2145 -2 36 -9
178 -15 315 -156 3702 -940 7385 -2304 10834 -1504 3801 -3650 7245 -6396
10266 -897 987 -2075 2131 -3005 2920 -32 28 -91 77 -129 111 -187 161 -635
529 -897 736 -2666 2112 -5604 3790 -8786 5017 -552 213 -1212 447 -1693 600
-124 40 -236 76 -250 81 -14 5 -120 38 -236 74 -2304 709 -4707 1170 -7104
1366 -458 37 -862 62 -1505 91 -212 10 -1954 20 -2160 13z m-8180 -1244 c-3
-5 -12 -10 -18 -10 -7 0 -6 4 3 10 19 12 23 12 15 0z m-71 -22 c-3 -4 0 -8 6
-8 6 0 9 -4 5 -9 -3 -5 3 -12 12 -14 17 -4 17 -5 0 -6 -10 0 -20 6 -23 14 -5
12 -9 12 -28 0 -14 -9 -26 -11 -36 -5 -12 8 -9 10 12 10 29 0 46 15 26 23 -7
3 -3 4 9 4 12 -1 19 -5 17 -9z m-11 -285 c-22 -8 -14 -26 8 -20 17 5 19 3 10
-6 -6 -6 -22 -12 -36 -13 -20 -1 -23 2 -14 13 7 7 9 16 5 20 -3 3 -6 1 -6 -6
0 -7 -4 -9 -10 -6 -5 3 -10 1 -10 -6 0 -7 -3 -9 -7 -5 -11 11 20 31 48 33 13
0 18 -1 12 -4z m-278 -83 c-3 -5 -12 -10 -18 -10 -7 0 -6 4 3 10 19 12 23 12
15 0z m65 -63966 c0 -8 -19 -13 -24 -6 -3 5 1 9 9 9 8 0 15 -2 15 -3z m-65
-14 c3 -6 -1 -7 -9 -4 -18 7 -21 14 -7 14 6 0 13 -4 16 -10z m197 -216 c3
-120 1 -141 -11 -136 -8 3 -11 7 -5 9 5 2 9 73 8 170 -1 93 0 152 2 133 2 -19
5 -99 6 -176z m99 159 c9 -9 7 -11 -10 -6 -22 6 -30 -12 -8 -21 6 -3 -1 -3
-17 -1 -16 2 -31 7 -35 11 -3 4 2 4 12 1 19 -7 23 3 7 19 -8 8 -3 11 14 10 14
-1 31 -7 37 -13z m-257 -219 c3 -8 2 -12 -4 -9 -6 3 -10 10 -10 16 0 14 7 11
14 -7z m235 -82 c8 -2 11 3 8 11 -3 8 4 13 22 14 14 0 18 -1 8 -4 -9 -2 -15
-9 -12 -14 4 -5 1 -9 -5 -9 -6 0 -9 -4 -6 -9 4 -5 -2 -8 -11 -7 -9 2 -23 14
-31 27 -11 18 -11 21 -1 9 8 -8 20 -16 28 -18z m86 -32 c3 -6 -1 -7 -9 -4 -18
7 -21 14 -7 14 6 0 13 -4 16 -10z"/>
<path d="M30460 72260 c-9 -6 -10 -10 -3 -10 6 0 15 5 18 10 8 12 4 12 -15 0z"/>
<path d="M30420 72250 c-13 -8 -12 -10 3 -10 9 0 17 5 17 10 0 12 -1 12 -20 0z"/>
<path d="M30390 72231 c0 -7 -5 -9 -12 -5 -7 4 -8 3 -4 -4 4 -7 2 -12 -3 -12
-6 0 -11 5 -11 10 0 6 -8 10 -17 10 -12 0 -14 -3 -6 -8 6 -4 15 -20 18 -35 7
-27 28 -36 40 -17 4 6 -1 7 -10 3 -16 -5 -16 -3 0 26 9 18 14 35 11 39 -3 3
-6 0 -6 -7z"/>
<path d="M30267 72197 c-5 -14 17 -39 27 -30 11 11 6 24 -6 17 -8 -5 -9 -2 -5
9 3 10 2 17 -2 17 -5 0 -11 -6 -14 -13z"/>
<path d="M30313 72189 c2 -10 7 -22 12 -26 4 -5 5 -2 1 5 -4 6 -3 12 2 12 5 0
9 6 9 13 0 8 -6 14 -13 14 -8 0 -12 -8 -11 -18z"/>
<path d="M30226 72191 c-4 -6 -17 -11 -28 -11 -31 0 -16 -10 21 -15 32 -4 37
1 22 24 -6 9 -11 10 -15 2z"/>
<path d="M30088 72135 c-15 -13 -17 -14 -9 -2 8 9 11 17 8 17 -11 0 -77 -31
-77 -36 0 -3 5 -2 12 2 7 4 8 3 4 -4 -5 -9 -12 -8 -26 0 -13 8 -22 9 -27 3
-13 -17 -4 -365 10 -365 9 0 11 43 9 165 -3 164 -3 165 20 174 15 5 26 5 31
-3 5 -6 7 -2 4 11 -3 13 0 26 5 30 7 3 8 1 4 -5 -4 -7 -1 -13 8 -13 30 -3 34
-4 43 -13 4 -5 4 -7 -2 -4 -5 3 -19 2 -30 -3 -14 -5 -3 -7 32 -6 28 1 49 5 46
9 -2 5 -12 8 -21 8 -14 0 -15 2 -2 9 8 6 17 8 20 6 4 -2 7 2 7 9 0 8 -8 11
-18 9 -9 -3 -20 0 -23 6 -4 6 -1 9 7 5 8 -3 17 -2 20 3 11 18 -34 8 -55 -12z
m-88 -30 c0 -2 -7 -8 -15 -15 -12 -10 -15 -10 -15 2 0 8 7 15 15 15 8 0 15 -1
15 -2z"/>
<path d="M29920 72040 c0 -40 0 -40 -38 -40 -36 0 -62 14 -62 33 0 4 5 5 12 1
6 -4 8 -3 5 4 -10 15 -40 8 -43 -11 -1 -9 3 -14 11 -11 7 3 16 1 20 -5 9 -15
-28 -14 -43 1 -9 9 -12 9 -12 0 0 -7 -7 -12 -15 -12 -13 0 -15 -24 -15 -160 0
-100 4 -160 10 -160 6 0 10 18 10 41 l0 41 88 -3 87 -3 3 162 c2 106 -1 162
-8 162 -5 0 -10 -18 -10 -40z"/>
<path d="M29873 72044 c-12 -13 -18 -24 -13 -24 11 0 40 29 40 41 0 12 -1 11
-27 -17z"/>
<path d="M29686 72022 c-3 -5 1 -9 9 -9 8 0 15 4 15 9 0 4 -4 8 -9 8 -6 0 -12
-4 -15 -8z"/>
<path d="M29547 71958 c-15 -12 -14 -13 10 -14 16 -1 22 1 15 3 -6 3 -10 9 -6
14 7 12 1 11 -19 -3z"/>
<path d="M29456 71938 c3 -5 10 -6 15 -3 13 9 11 12 -6 12 -8 0 -12 -4 -9 -9z"/>
<path d="M30249 71918 c-4 -11 -6 -70 -2 -60 3 6 15 12 27 12 26 0 46 17 46
40 0 13 -2 13 -11 0 -8 -11 -12 -12 -16 -2 -4 10 -41 18 -44 10z"/>
<path d="M30359 71915 c-1 -3 -2 -11 -3 -17 -1 -7 -7 -12 -13 -11 -6 1 -19 -7
-29 -19 -12 -13 -13 -18 -4 -12 8 5 23 9 33 10 9 1 18 2 20 3 1 2 13 5 26 7
14 2 27 7 30 11 3 3 -4 4 -16 1 -22 -6 -49 13 -36 25 3 4 3 7 0 7 -4 0 -8 -2
-8 -5z"/>
<path d="M30380 71912 c0 -5 7 -9 15 -9 8 0 15 4 15 9 0 4 -7 8 -15 8 -8 0
-15 -4 -15 -8z"/>
<path d="M30445 71904 c-10 -8 -14 -14 -8 -14 7 0 14 4 18 10 3 5 12 7 20 3 8
-3 15 -3 15 0 0 13 -28 13 -45 1z"/>
<path d="M30000 71829 c0 -5 6 -7 13 -3 9 5 9 4 0 -6 -9 -10 -7 -17 13 -32 31
-25 64 -17 43 10 -13 16 -12 16 6 1 14 -11 26 -14 40 -9 11 5 14 9 7 9 -7 1
-10 5 -7 11 3 5 0 7 -8 4 -8 -3 -18 0 -23 7 -5 8 -3 10 6 4 9 -5 11 -4 6 3 -9
16 -36 15 -36 0 0 -9 -3 -9 -12 0 -15 15 -48 16 -48 1z"/>
<path d="M30150 71825 c-7 -9 -10 -18 -7 -22 8 -7 37 15 37 28 0 14 -16 11
-30 -6z"/>
<path d="M30196 71828 c3 -4 9 -8 15 -8 5 0 9 4 9 8 0 5 -7 9 -15 9 -8 0 -12
-4 -9 -9z"/>
<path d="M30002 71781 c4 -13 18 -16 19 -4 0 4 -5 9 -11 12 -7 2 -11 -2 -8 -8z"/>
<path d="M29795 71729 c-3 -4 2 -6 10 -5 21 3 28 13 10 13 -9 0 -18 -4 -20 -8z"/>
<path d="M29600 71674 c0 -1 12 -9 26 -19 15 -9 23 -12 20 -6 -7 10 7 16 29
11 6 -1 7 2 2 6 -6 6 -77 14 -77 8z"/>
<path d="M29570 71636 c0 -2 7 -7 16 -10 8 -3 12 -2 9 4 -6 10 -25 14 -25 6z"/>
<path d="M39432 66259 c-734 -24 -1621 -106 -2247 -209 -99 -17 -187 -31 -195
-31 -44 -4 -292 -49 -301 -55 -6 -3 -30 -8 -52 -11 -59 -7 -82 -10 -82 -13 0
-1 -11 -3 -25 -5 -14 -2 -36 -6 -50 -8 -14 -3 -38 -5 -53 -6 -18 -1 -39 -13
-58 -33 -26 -30 -35 -30 -30 -3 1 6 -5 3 -15 -7 -16 -16 -12 -38 7 -38 6 0 8
3 6 8 -3 4 5 7 18 7 24 0 24 0 24 -130 0 -71 0 -134 1 -139 0 -5 7 -3 15 4 13
11 14 10 9 -4 -6 -15 -42 -14 -69 3 -19 12 -88 6 -93 -8 -3 -8 0 -11 7 -7 6 4
11 2 11 -3 0 -6 -5 -11 -11 -11 -6 0 -4 -6 4 -14 14 -15 40 -16 53 -3 4 3 -3
5 -15 2 -17 -3 -21 1 -21 23 1 24 2 25 11 9 10 -17 12 -17 29 -2 16 15 17 14
15 -8 -2 -15 2 -24 11 -24 8 0 13 5 11 12 -3 6 4 12 14 12 11 1 17 -3 13 -8
-9 -15 19 -6 34 11 8 8 11 9 7 3 -4 -9 1 -13 14 -13 12 0 21 3 21 8 0 4 21 8
47 10 26 1 50 6 53 10 3 4 14 7 25 7 11 -1 38 3 60 7 22 4 60 11 85 14 25 4
47 10 48 15 2 5 7 7 11 4 5 -2 48 3 97 11 49 9 97 16 107 15 10 0 15 5 11 11
-5 7 -2 8 5 3 19 -11 172 15 164 29 -4 8 -3 8 6 1 8 -8 57 -4 163 12 1565 234
3249 261 4863 77 2790 -317 5307 -1160 7605 -2547 3799 -2294 6650 -5946 7996
-10242 449 -1434 728 -2922 828 -4425 29 -431 37 -670 46 -1405 6 -407 12
-762 15 -790 3 -27 12 -138 21 -245 110 -1374 526 -2770 1189 -3985 129 -238
287 -501 542 -901 883 -1387 1684 -2517 2453 -3464 196 -241 245 -311 310
-439 225 -451 223 -952 -7 -1403 -212 -416 -606 -711 -1069 -797 -371 -69
-1253 -149 -2184 -197 -179 -9 -342 -21 -362 -26 -51 -12 -93 -50 -114 -104
-15 -40 -16 -72 -10 -292 28 -1049 185 -1841 492 -2493 35 -75 71 -167 80
-205 33 -140 0 -307 -84 -431 -59 -86 -316 -324 -533 -493 -187 -146 -327
-230 -571 -344 -66 -31 -98 -74 -105 -141 -8 -63 10 -102 83 -185 183 -207
357 -508 463 -797 64 -177 81 -247 81 -345 0 -249 -163 -469 -424 -569 -415
-159 -713 -426 -886 -792 -46 -99 -89 -220 -111 -316 -43 -187 -42 -138 -49
-1621 -7 -1557 -4 -1481 -71 -1750 -59 -238 -154 -455 -288 -657 -367 -552
-925 -897 -1575 -974 -131 -15 -712 -6 -946 15 -589 54 -1118 153 -1667 312
-413 119 -471 143 -2458 1006 -1050 457 -2029 882 -2175 945 -278 120 -417
181 -603 262 -335 147 -346 150 -427 108 -59 -29 -82 -73 -159 -301 -311 -929
-400 -2270 -270 -4106 98 -1393 337 -3103 685 -4886 87 -448 101 -578 85 -761
-38 -423 -205 -779 -506 -1078 -136 -136 -261 -226 -430 -310 -230 -114 -345
-143 -1040 -260 -1320 -222 -2575 -348 -4045 -407 -394 -15 -1665 -15 -2065 1
-1036 40 -1966 116 -2890 235 -99 13 -187 24 -195 25 -8 0 -46 6 -83 12 -61
10 -70 10 -90 -7 -18 -16 -19 -16 -8 -2 11 15 11 19 0 22 -34 12 -65 10 -77
-4 -12 -13 -13 -13 -9 1 3 9 0 16 -6 17 -14 1 -57 7 -152 22 -112 18 -128 19
-120 12 4 -4 12 -7 18 -7 9 0 12 -46 12 -167 0 -91 2 -165 4 -162 2 2 10 -4
16 -13 10 -13 13 18 14 157 1 96 4 177 7 179 3 3 4 -69 4 -159 0 -91 -1 -171
0 -179 0 -8 7 -11 20 -8 11 3 23 1 26 -4 3 -5 12 -9 20 -9 8 0 13 4 10 8 -3 5
1 9 9 9 8 0 12 -4 10 -8 -8 -12 33 -17 46 -5 9 8 10 8 5 -1 -5 -8 -1 -13 11
-14 10 0 31 -3 46 -5 22 -4 27 -2 21 8 -4 7 1 6 12 -4 10 -9 30 -16 44 -16 14
-1 138 -16 275 -36 824 -116 1850 -203 2925 -248 390 -17 1831 -17 2220 0
1619 68 2989 217 4445 483 416 75 630 150 886 309 179 111 392 302 522 466
331 421 490 957 436 1475 -5 57 -44 277 -85 489 -631 3257 -858 5754 -683
7520 48 485 130 922 231 1228 27 84 32 93 52 89 11 -3 84 -33 161 -67 77 -34
201 -88 275 -120 74 -32 191 -83 260 -113 204 -88 494 -215 660 -287 85 -37
877 -381 1760 -765 883 -384 1666 -720 1740 -747 581 -212 1332 -386 1973
-458 425 -48 911 -69 1161 -52 364 26 643 101 961 257 402 197 749 506 997
885 150 229 292 565 346 820 58 272 55 185 62 1720 l5 1415 23 108 c42 200
121 385 221 518 130 172 339 327 551 406 168 64 284 136 401 253 190 190 291
447 275 705 -7 118 -21 182 -77 347 -85 252 -208 501 -363 732 -47 71 -75 121
-68 124 27 9 264 162 353 228 197 147 514 427 612 543 100 116 171 264 202
420 13 65 16 115 12 215 -5 148 -32 257 -91 374 -182 362 -332 886 -410 1432
-44 301 -76 696 -76 922 l0 106 63 6 c34 3 186 13 337 21 879 50 1666 127
2010 195 176 35 286 72 445 150 415 201 731 536 910 964 91 217 133 414 142
661 12 328 -47 612 -187 901 -77 159 -165 287 -364 531 -801 983 -1723 2296
-2633 3753 -821 1314 -1312 2744 -1462 4260 -36 363 -42 502 -51 1255 -10 828
-22 1101 -71 1685 -266 3173 -1323 6243 -3057 8880 -1369 2083 -3137 3869
-5192 5245 -1389 930 -2901 1667 -4500 2193 -2135 703 -4515 1044 -6768 971z
m-2745 -324 c0 -8 -4 -12 -9 -9 -5 3 -6 10 -3 15 9 13 12 11 12 -6z m15 -290
c2 3 5 -1 5 -8 0 -8 -6 -14 -14 -14 -7 0 -13 6 -13 14 0 7 -4 13 -10 13 -5 0
-10 5 -10 12 0 6 7 4 18 -5 10 -10 21 -15 24 -12z m-180 -52408 c3 -16 0 -23
-12 -23 -13 0 -14 4 -6 23 13 28 13 28 18 0z m29 -14 c13 -16 12 -17 -3 -4
-17 13 -22 21 -14 21 2 0 10 -8 17 -17z m-28 -270 c-7 -2 -19 -2 -25 0 -7 3
-2 5 12 5 14 0 19 -2 13 -5z m112 -23 c3 -5 1 -10 -4 -10 -6 0 -11 5 -11 10 0
6 2 10 4 10 3 0 8 -4 11 -10z m73 -4 c-10 -7 -17 -15 -15 -17 1 -2 -2 1 -8 7
-5 6 -17 9 -25 7 -10 -3 -11 -2 -3 4 6 4 24 9 39 10 25 1 27 0 12 -11z"/>
<path d="M36297 65892 c-4 -6 -15 -9 -25 -6 -16 5 -16 5 1 -6 9 -6 17 -19 18
-28 0 -12 3 -9 10 7 11 27 7 52 -4 33z"/>
<path d="M36197 65856 c-14 -21 -17 -53 -17 -181 l0 -155 -24 0 c-14 0 -27 -4
-30 -9 -5 -8 16 -7 59 3 11 2 26 5 33 5 11 1 13 35 10 175 -2 96 0 172 5 169
4 -2 4 -10 0 -16 -4 -7 0 -6 10 2 11 9 17 10 17 2 0 -6 4 -11 8 -11 5 0 9 7 9
15 0 8 -5 15 -11 15 -6 0 -20 3 -32 6 -15 4 -25 -2 -37 -20z"/>
<path d="M36154 65855 c-18 -14 -18 -15 3 -12 27 4 38 13 25 21 -5 3 -18 -1
-28 -9z"/>
<path d="M36100 65850 c-12 -8 -10 -10 8 -10 13 0 20 4 17 10 -7 12 -6 12 -25
0z"/>
<path d="M36066 65842 c-4 -7 -11 -10 -14 -8 -6 4 -7 -17 -3 -56 1 -4 8 -5 16
-2 18 7 20 34 3 34 -10 0 -9 3 1 9 7 5 11 15 9 22 -3 10 -6 10 -12 1z"/>
<path d="M36019 65838 c-5 -18 -6 -38 -1 -34 7 8 12 36 6 36 -2 0 -4 -1 -5 -2z"/>
<path d="M36342 65720 c4 -161 22 -163 26 -2 2 105 0 122 -13 122 -13 0 -15
-17 -13 -120z"/>
<path d="M35986 65795 c3 -19 -1 -26 -20 -31 -13 -3 -32 -4 -42 -2 -18 3 -19
-6 -22 -121 -2 -76 1 -128 8 -135 7 -7 10 -7 10 1 0 5 18 10 40 10 22 0 37 -4
34 -9 -3 -5 3 -4 14 3 17 10 23 10 37 -1 25 -21 65 -24 65 -5 0 8 -7 15 -15
15 -13 0 -15 20 -15 124 l0 125 -44 -5 c-42 -6 -43 -5 -41 20 2 14 -1 28 -5
31 -5 3 -7 -6 -4 -20z"/>
<path d="M35860 65790 c-12 -8 -12 -10 2 -15 20 -8 38 1 37 18 0 9 -2 9 -6 0
-2 -7 -9 -13 -14 -13 -6 0 -7 5 -4 10 8 12 4 12 -15 0z"/>
<path d="M35934 65485 c0 -13 3 -22 7 -19 8 4 6 30 -2 38 -3 3 -5 -5 -5 -19z"/>
<path d="M35965 65501 c-3 -5 -2 -12 3 -15 5 -3 9 1 9 9 0 17 -3 19 -12 6z"/>
<path d="M35895 65478 c1 -12 8 -24 16 -26 12 -3 12 -2 0 6 -10 7 -10 11 -1
14 9 3 8 7 -2 16 -12 10 -14 8 -13 -10z"/>
<path d="M35860 65480 c0 -5 5 -10 11 -10 5 0 7 5 4 10 -3 6 -8 10 -11 10 -2
0 -4 -4 -4 -10z"/>
<path d="M35726 65422 c-3 -5 1 -9 9 -9 8 0 12 4 9 9 -3 4 -7 8 -9 8 -2 0 -6
-4 -9 -8z"/>
<path d="M40144 60846 c-440 -116 -704 -571 -584 -1006 77 -276 302 -500 578
-576 l62 -17 0 -2379 0 -2378 -1020 0 -1020 0 0 1275 0 1274 43 11 c226 57
431 221 537 430 208 408 26 920 -396 1111 -116 53 -221 72 -369 67 -111 -4
-142 -9 -216 -35 -273 -94 -462 -294 -541 -568 -32 -114 -32 -306 0 -420 84
-294 307 -511 600 -585 l42 -11 0 -1274 0 -1275 -612 -2 c-337 -2 -703 -2
-813 -2 -110 1 -181 0 -157 -3 l42 -4 0 -120 c0 -99 3 -119 15 -119 13 0 15
20 15 120 0 100 3 120 15 120 12 0 15 -20 15 -119 0 -86 4 -121 13 -125 6 -4
-17 -4 -52 -1 -35 3 -75 5 -87 5 -24 0 -24 1 -24 120 0 73 -4 120 -10 120 -6
0 -10 -47 -10 -120 0 -100 -2 -120 -15 -120 -12 0 -15 20 -15 120 l0 120 -30
0 -31 0 3 -122 3 -123 39 -2 c59 -3 56 -13 -4 -13 -45 0 -51 -2 -40 -15 11
-13 590 -15 4749 -15 2735 0 4759 -4 4791 -9 182 -30 356 -106 505 -221 89
-70 1609 -1601 1659 -1671 64 -92 132 -239 164 -356 l27 -98 3 -5265 c2 -3874
0 -5286 -8 -5345 -22 -155 -83 -311 -177 -454 -47 -72 -180 -210 -842 -872
-441 -441 -817 -808 -856 -837 -138 -102 -326 -177 -499 -201 -54 -8 -1444
-11 -4614 -12 -2495 0 -4545 -4 -4555 -8 -10 -3 -60 -3 -110 2 -96 8 -162 3
-152 -14 4 -5 -4 -9 -17 -9 -16 0 -19 3 -10 9 10 6 8 10 -10 14 -12 4 -32 6
-43 6 -13 -1 -10 -4 10 -9 l30 -8 -35 -2 -35 -2 30 -13 c19 -9 24 -14 13 -15
-16 0 -18 -12 -18 -119 l0 -118 31 -7 c40 -8 232 -8 253 0 13 5 16 26 16 123
0 113 7 141 34 141 6 0 5 -5 -2 -12 -8 -8 -12 -51 -12 -129 l0 -118 43 -5 c23
-3 67 -5 97 -3 30 1 331 1 668 -1 l612 -2 0 -1009 0 -1009 -52 -12 c-83 -19
-246 -103 -321 -164 -391 -326 -394 -919 -5 -1252 242 -207 601 -253 881 -113
216 109 364 284 433 516 23 74 27 108 27 213 0 85 -5 147 -17 195 -23 98 -104
258 -170 336 -102 122 -260 224 -411 264 l-65 18 0 1008 0 1009 1020 0 1020 0
0 -2379 0 -2378 -42 -7 c-22 -4 -74 -20 -114 -37 -556 -232 -688 -949 -250
-1356 164 -152 334 -218 561 -217 111 1 143 5 218 28 151 45 266 115 368 222
99 105 152 198 195 341 23 75 27 107 28 218 0 138 -11 200 -58 317 -75 184
-231 346 -418 432 -40 19 -99 40 -130 47 l-58 14 0 2377 0 2378 1020 0 1020 0
0 -1273 0 -1272 -49 -12 c-131 -31 -250 -97 -358 -197 -174 -162 -257 -355
-257 -596 0 -142 16 -221 69 -337 104 -228 305 -395 550 -459 96 -25 294 -25
390 0 193 50 377 179 485 339 92 138 134 280 134 457 0 142 -16 221 -70 338
-102 224 -313 400 -545 455 l-49 12 0 1272 0 1273 880 0 880 0 0 -1408 0
-1407 468 -468 468 -468 -47 -94 c-68 -137 -84 -210 -84 -385 1 -137 3 -150
33 -240 43 -124 98 -215 186 -307 111 -118 217 -182 373 -229 111 -33 296 -38
407 -11 403 100 675 485 627 886 -26 210 -106 368 -258 512 -164 155 -369 229
-600 217 -127 -7 -214 -30 -328 -88 l-94 -46 -425 425 -426 426 0 1341 0 1342
378 5 c411 6 460 11 639 68 175 56 325 141 478 270 132 111 1596 1587 1652
1664 150 209 235 429 262 677 6 54 11 241 11 418 l0 320 1522 0 1523 0 427
-427 427 -427 -20 -27 c-107 -150 -150 -431 -99 -635 73 -291 306 -522 599
-595 115 -29 329 -23 436 11 286 91 500 325 560 612 21 100 19 265 -5 364 -72
301 -303 532 -604 604 -99 24 -264 26 -364 5 -84 -17 -184 -56 -245 -95 l-44
-28 -469 469 -469 469 -1587 0 -1588 0 0 880 0 880 1009 0 1008 0 18 -67 c74
-275 302 -499 583 -575 108 -29 306 -29 414 0 275 74 491 283 578 557 31 99
39 303 16 409 -57 256 -219 458 -457 570 -121 58 -185 71 -344 71 -158 0 -223
-14 -342 -69 -228 -108 -391 -302 -449 -531 l-16 -65 -1009 0 -1009 0 0 1020
0 1020 2379 0 2379 0 7 -37 c24 -130 122 -300 234 -405 404 -382 1061 -260
1300 242 63 132 76 193 75 355 0 165 -14 227 -79 360 -81 165 -206 290 -370
370 -137 67 -196 79 -365 79 -167 0 -228 -12 -355 -74 -210 -102 -365 -286
-431 -510 l-22 -75 -2376 -3 -2376 -2 0 1020 0 1020 1273 0 1272 0 18 -67 c70
-271 303 -500 582 -574 113 -30 298 -30 410 0 369 98 615 417 615 797 0 369
-249 693 -610 791 -91 25 -328 25 -420 0 -160 -44 -323 -151 -423 -276 -65
-82 -137 -223 -159 -311 l-14 -55 -1272 -3 -1272 -2 0 880 0 880 1407 0 1408
0 470 470 470 470 87 -45 c131 -68 215 -88 378 -88 159 0 241 18 367 82 207
104 364 296 425 520 31 111 31 316 0 424 -81 283 -295 498 -579 579 -103 30
-314 32 -413 4 -302 -83 -513 -294 -596 -596 -13 -47 -18 -101 -18 -200 0
-161 19 -245 89 -380 l45 -85 -428 -427 -427 -428 -1341 0 -1342 0 -5 388 c-4
348 -7 397 -26 484 -46 209 -128 390 -247 548 -51 67 -314 336 -881 901 -676
674 -822 815 -893 862 -157 102 -292 161 -470 204 -101 25 -118 26 -502 30
l-398 5 0 1521 0 1522 426 426 425 425 94 -46 c114 -58 201 -81 328 -88 393
-20 736 230 838 613 27 102 30 288 6 387 -113 465 -589 737 -1045 596 -135
-41 -243 -110 -348 -221 -88 -92 -143 -183 -186 -307 -30 -90 -32 -103 -33
-240 0 -175 16 -248 84 -385 l47 -94 -468 -468 -468 -468 0 -1587 0 -1588
-880 0 -880 0 0 1010 c0 800 3 1011 13 1014 376 91 627 382 653 756 26 359
-210 709 -556 824 -220 73 -464 49 -670 -67 -90 -51 -239 -195 -289 -279 -144
-247 -158 -534 -38 -783 112 -231 311 -387 575 -451 9 -3 12 -214 12 -1014 l0
-1010 -1020 0 -1020 0 0 2379 0 2378 65 18 c244 66 450 250 545 489 157 391
-16 843 -395 1031 -127 63 -187 77 -345 81 -118 4 -146 1 -226 -20z m376 -300
c163 -56 292 -196 335 -363 45 -172 -8 -364 -135 -494 -206 -209 -528 -209
-739 -1 -106 104 -150 213 -151 367 0 147 46 260 150 365 143 146 348 193 540
126z m5802 -967 c193 -40 352 -196 403 -394 65 -254 -97 -536 -354 -616 -282
-87 -594 93 -661 381 -55 234 65 482 283 586 110 52 217 66 329 43z m-8136
-1243 c400 -146 467 -688 114 -925 -210 -140 -480 -112 -661 68 -104 104 -149
214 -149 366 0 152 45 262 149 365 150 149 354 196 547 126z m4627 -511 c95
-25 177 -72 247 -144 102 -104 150 -219 150 -361 0 -145 -50 -266 -150 -366
-108 -107 -221 -154 -369 -154 -148 0 -267 49 -369 152 -102 101 -152 223
-152 368 0 142 48 257 150 361 131 134 320 189 493 144z m-6373 -3471 c0 -81
-4 -123 -10 -119 -6 4 -10 57 -10 126 0 73 4 119 10 119 6 0 10 -49 10 -126z
m220 6 c0 -73 -4 -120 -10 -120 -6 0 -10 47 -10 120 0 73 4 120 10 120 6 0 10
-47 10 -120z m5 -140 c4 -6 -15 -9 -52 -8 l-58 1 45 7 c25 4 48 8 52 8 4 1 10
-2 13 -8z m-265 -10 c0 -6 -38 -9 -97 -8 -91 1 -93 2 -38 8 97 11 135 11 135
0z m50 6 c0 -9 -30 -14 -35 -6 -4 6 3 10 14 10 12 0 21 -2 21 -4z m16243
-1329 c375 -119 490 -586 213 -863 -196 -196 -504 -206 -710 -23 -258 230
-228 633 62 825 125 83 291 106 435 61z m-883 -3524 c172 -47 313 -188 364
-362 9 -31 16 -90 16 -135 0 -149 -47 -263 -151 -367 -110 -111 -258 -168
-404 -156 -227 20 -413 179 -470 402 -74 289 133 589 439 635 62 10 132 4 206
-17z m2210 -2340 c88 -24 164 -70 233 -142 102 -106 147 -214 147 -357 0 -196
-105 -370 -277 -462 -202 -107 -444 -70 -608 94 -198 198 -207 502 -21 710
136 153 330 211 526 157z m-2739 -2339 c169 -50 298 -172 357 -337 20 -57 26
-91 26 -162 0 -150 -54 -275 -164 -379 -208 -196 -503 -195 -711 2 -132 124
-190 298 -156 467 41 196 165 336 357 402 80 28 210 31 291 7z m1714 -3519
c207 -44 366 -203 410 -410 8 -38 15 -83 15 -100 0 -16 -7 -61 -15 -100 -52
-247 -261 -419 -510 -419 -412 0 -660 455 -436 801 74 114 196 198 331 227 85
19 120 19 205 1z m-16347 -2332 c-15 -2 -42 -2 -60 0 -18 2 -6 4 27 4 33 0 48
-2 33 -4z m-350 -10 c-16 -2 -40 -2 -55 0 -16 2 -3 4 27 4 30 0 43 -2 28 -4z
m350 -10 c-15 -2 -42 -2 -60 0 -18 2 -6 4 27 4 33 0 48 -2 33 -4z m-255 -10
c-10 -3 -13 -38 -13 -124 0 -99 -3 -119 -15 -119 -12 0 -15 20 -15 120 0 100
-2 120 -15 120 -12 0 -15 -20 -15 -120 l0 -120 -45 0 -45 0 0 120 c0 73 -4
120 -10 120 -6 0 -10 -47 -10 -120 0 -100 -2 -120 -15 -120 -12 0 -15 20 -15
119 0 86 -3 121 -12 124 -7 3 43 5 112 5 69 0 119 -2 113 -5z m267 -123 c0
-73 -4 -120 -10 -120 -6 0 -10 47 -10 120 0 73 4 120 10 120 6 0 10 -47 10
-120z m1451 -2440 c95 -18 195 -73 268 -148 252 -257 181 -673 -140 -831 -297
-146 -650 12 -734 330 -22 79 -19 214 5 291 26 83 82 170 153 235 120 109 283
154 448 123z m4708 -535 c94 -25 162 -65 237 -139 106 -106 154 -220 154 -366
0 -146 -48 -260 -154 -366 -107 -106 -220 -154 -366 -154 -150 1 -258 46 -366
154 -108 108 -154 217 -154 366 0 41 5 95 11 120 40 175 197 336 376 385 65
18 196 18 262 0z m3564 -879 c173 -62 300 -202 342 -378 76 -324 -177 -638
-513 -638 -216 0 -427 158 -493 369 -24 78 -28 191 -9 271 29 127 128 263 235
326 133 78 303 97 438 50z m-5913 -1327 c178 -41 337 -198 385 -380 19 -69 19
-189 0 -258 -49 -185 -206 -338 -394 -381 -75 -17 -221 -8 -290 18 -159 62
-285 199 -325 357 -21 77 -20 207 0 276 51 174 195 317 365 363 64 17 195 20
259 5z"/>
<path d="M35790 57576 c0 -2 8 -10 18 -17 15 -13 16 -12 3 4 -13 16 -21 21
-21 13z"/>
<path d="M35870 57496 c0 -2 8 -10 18 -17 15 -13 16 -12 3 4 -13 16 -21 21
-21 13z"/>
<path d="M35950 57416 c0 -2 8 -10 18 -17 15 -13 16 -12 3 4 -13 16 -21 21
-21 13z"/>
<path d="M36076 57293 c-6 -14 -5 -15 5 -6 7 7 10 15 7 18 -3 3 -9 -2 -12 -12z"/>
<path d="M36005 57290 c3 -5 8 -10 11 -10 2 0 4 5 4 10 0 6 -5 10 -11 10 -5 0
-7 -4 -4 -10z"/>
<path d="M36085 54510 c6 -30 16 -40 12 -12 -2 12 -6 24 -10 28 -3 4 -4 -4 -2
-16z"/>
<path d="M36100 53580 c0 -5 26 -11 58 -11 31 -1 45 -4 30 -6 -20 -3 -28 -10
-28 -24 0 -15 -5 -18 -22 -14 -23 6 -23 5 -20 -80 l3 -85 30 0 29 0 0 80 c0
64 3 80 15 80 12 0 15 -15 15 -78 0 -43 4 -82 10 -87 6 -7 -17 -10 -63 -9 -70
1 -70 1 -9 -3 36 -2 60 -8 57 -13 -4 -6 3 -10 14 -10 12 0 21 7 21 15 0 12 18
14 103 13 59 -1 89 -5 72 -8 l-30 -7 35 -5 c23 -3 13 -5 -32 -6 -44 -1 -68 -6
-68 -13 0 -8 -18 -10 -62 -5 -45 4 -59 3 -51 -5 7 -7 34 -9 74 -5 117 10 179
11 179 4 0 -5 2040 -8 4533 -8 4409 0 4533 -1 4572 -19 27 -13 276 -256 787
-767 643 -645 748 -755 757 -789 16 -59 15 -10332 -1 -10389 -10 -35 -111
-141 -747 -779 -405 -406 -751 -747 -769 -759 -18 -11 -50 -24 -70 -29 -20 -5
-2099 -9 -4619 -9 -4159 0 -4583 -2 -4583 -16 0 -14 -13 -15 -104 -9 -72 5
-106 4 -110 -4 -9 -13 1 -14 118 -12 49 1 97 6 106 11 21 11 103 11 121 -1 10
-6 4 -9 -18 -9 -17 0 -40 -3 -50 -7 -14 -6 -10 -9 17 -13 l35 -5 3 -82 c2 -53
-1 -83 -8 -83 -6 0 -10 31 -10 80 0 73 -2 80 -20 80 -18 0 -20 -7 -20 -80 0
-63 -3 -80 -14 -80 -11 0 -15 20 -18 85 -2 47 1 85 5 85 5 0 6 4 2 9 -3 6 -29
8 -58 5 -99 -10 -92 -2 -89 -99 3 -74 1 -85 -13 -85 -14 0 -16 11 -13 84 l3
84 -32 0 -33 0 0 -78 c0 -43 -3 -85 -6 -94 -4 -12 0 -16 15 -16 12 0 21 6 21
13 0 9 2 9 9 -1 4 -8 14 -13 22 -12 26 4 40 0 34 -10 -3 -5 -25 -8 -48 -6 -45
4 -67 -1 -67 -15 0 -12 117 -12 125 1 3 5 11 7 18 5 7 -2 46 -6 87 -9 41 -3
64 -1 50 3 -24 7 -25 7 -3 13 14 4 24 1 27 -8 5 -12 685 -14 4585 -14 4558 0
4579 0 4644 20 36 11 91 38 123 60 36 23 364 345 820 802 746 748 761 764 795
838 l34 75 3 5240 c3 4856 2 5245 -14 5303 -9 34 -33 88 -54 120 -23 35 -336
354 -806 824 -624 621 -779 771 -823 793 -117 58 202 55 -4623 55 -2947 0
-4439 -3 -4443 -10 -3 -5 -25 -9 -48 -8 l-42 1 45 7 c25 4 -78 8 -227 8 -177
1 -273 -2 -273 -8z m215 -15 c6 -2 -14 -4 -43 -4 -29 -1 -51 3 -48 7 4 7 67 5
91 -3z m62 9 c-3 -3 -12 -4 -19 -1 -8 3 -5 6 6 6 11 1 17 -2 13 -5z m69 -8
c12 -13 12 -15 -4 -20 -9 -3 -37 -1 -62 4 l-45 9 53 -5 c55 -5 67 1 30 16 -19
7 -20 9 -5 9 10 1 25 -5 33 -13z m177 -13 c-13 -2 -33 -2 -45 0 -13 2 -3 4 22
4 25 0 35 -2 23 -4z m-294 -7 c-10 -9 -149 -14 -155 -5 -3 5 30 9 77 9 45 0
80 -2 78 -4z m123 -18 c-7 -7 -12 -43 -12 -90 0 -45 -4 -78 -10 -78 -6 0 -10
33 -10 80 0 57 -4 80 -12 81 -7 1 -2 5 12 9 37 12 45 11 32 -2z m-70 -83 c-3
-65 -7 -85 -18 -85 -11 0 -14 18 -14 85 0 74 2 85 18 85 15 0 17 -9 14 -85z
m280 0 c-2 -47 -8 -85 -13 -85 -5 0 -9 36 -9 79 l0 80 -42 4 c-39 3 -38 4 12
5 l55 2 -3 -85z m-342 -5 l0 -80 -45 0 -45 0 0 80 0 80 45 0 45 0 0 -80z m347
-126 c-3 -3 -12 -4 -19 -1 -8 3 -5 6 6 6 11 1 17 -2 13 -5z m-34 -13601 c-13
-2 -35 -2 -50 0 -16 2 -5 4 22 4 28 0 40 -2 28 -4z m5 -20 c-16 -2 -40 -2 -55
0 -16 2 -3 4 27 4 30 0 43 -2 28 -4z m-318 -88 l0 -85 -44 0 -45 0 -3 83 -3
84 48 2 47 2 0 -86z m342 -10 c2 -63 0 -85 -9 -85 -10 0 -13 24 -13 85 0 47 4
85 9 85 5 0 11 -38 13 -85z m-327 -95 c14 -6 4 -9 -37 -9 -33 -1 -58 3 -58 9
0 12 67 12 95 0z m130 -20 c3 -5 -3 -10 -15 -10 -12 0 -18 5 -15 10 3 6 10 10
15 10 5 0 12 -4 15 -10z m202 4 c-3 -3 -12 -4 -19 -1 -8 3 -5 6 6 6 11 1 17
-2 13 -5z"/>
<path d="M36118 53553 c6 -2 18 -2 25 0 6 3 1 5 -13 5 -14 0 -19 -2 -12 -5z"/>
<path d="M36328 53333 c7 -3 16 -2 19 1 4 3 -2 6 -13 5 -11 0 -14 -3 -6 -6z"/>
<path d="M36118 53323 c7 -3 16 -2 19 1 4 3 -2 6 -13 5 -11 0 -14 -3 -6 -6z"/>
<path d="M36160 53320 c0 -5 -14 -10 -31 -10 -18 0 -28 -4 -24 -10 11 -18 78
-7 81 13 1 9 -4 17 -12 17 -8 0 -14 -4 -14 -10z"/>
<path d="M37685 50473 c-88 -18 -184 -58 -261 -108 -35 -23 -204 -183 -411
-389 l-353 -350 3 -181 c2 -142 -1 -179 -10 -169 -8 8 -13 61 -14 168 -1 85
-6 153 -10 150 -5 -3 -9 -13 -9 -22 0 -9 -5 -24 -11 -32 -9 -13 -10 -12 -5 2
3 12 1 15 -10 11 -8 -3 -13 -8 -10 -10 2 -2 -8 -17 -22 -31 -46 -46 -72 -88
-60 -100 6 -6 6 -12 -3 -17 -8 -5 -10 -4 -5 3 11 19 -5 14 -19 -5 -9 -12 -10
-24 -4 -35 6 -10 5 -19 -1 -23 -5 -3 -10 -11 -10 -16 0 -6 5 -7 12 -3 7 4 8 3
4 -4 -4 -6 -13 -9 -20 -6 -8 3 -17 1 -20 -4 -3 -6 1 -12 9 -16 9 -3 12 -12 9
-21 -4 -9 -13 -14 -20 -11 -7 3 -16 0 -20 -6 -4 -6 -3 -8 4 -4 6 3 13 2 17 -4
3 -5 -1 -10 -9 -10 -8 0 -18 -4 -21 -10 -4 -6 1 -7 12 -4 16 5 16 4 -1 -10
-14 -11 -19 -30 -21 -69 -1 -30 -6 -60 -10 -67 -5 -9 -4 -11 3 -6 7 4 12 2 12
-3 0 -6 -3 -11 -7 -11 -5 0 -8 -1143 -8 -2539 0 -1397 3 -2534 7 -2528 6 9 8
9 8 0 0 -6 -5 -15 -10 -18 -8 -5 -7 -11 0 -20 6 -8 10 -26 9 -42 -4 -48 1 -74
11 -68 6 3 14 -4 19 -17 6 -13 10 -19 10 -14 1 6 7 1 15 -9 8 -11 11 -25 8
-33 -3 -10 -7 -11 -12 -2 -5 8 -9 4 -13 -9 -3 -12 -1 -21 3 -21 5 0 11 -14 15
-30 7 -33 40 -59 48 -37 3 8 10 7 25 -7 12 -10 19 -22 17 -27 -3 -4 -1 -10 5
-14 5 -3 10 -10 10 -16 0 -5 -8 -1 -18 9 -10 9 -14 20 -10 23 5 3 2 11 -6 18
-10 8 -16 9 -21 1 -3 -6 -11 -8 -16 -5 -5 4 -4 -5 3 -19 6 -14 15 -26 20 -26
4 0 8 -5 8 -11 0 -19 52 -79 63 -72 5 3 7 2 4 -4 -4 -5 7 -23 23 -38 21 -20
30 -24 30 -14 0 8 -6 21 -12 28 -10 11 -10 13 0 7 9 -6 12 25 13 136 1 79 1
151 0 160 -1 10 2 26 8 35 8 14 9 11 5 -13 -3 -17 -2 -34 2 -37 5 -3 7 -82 4
-175 -3 -94 -2 -168 3 -165 4 2 7 -2 7 -9 0 -8 163 -176 363 -373 388 -386
409 -403 564 -459 l88 -31 2665 0 2665 0 80 27 c158 54 177 70 628 518 483
479 516 520 570 708 l22 77 3 2570 c2 1647 -1 2599 -7 2652 -6 45 -22 117 -36
160 -53 157 -82 192 -534 644 -430 430 -464 459 -598 514 -145 58 26 55 -2800
54 -2255 -1 -2597 -3 -2658 -16z m5316 -303 c33 -12 79 -32 102 -46 23 -15
220 -205 438 -423 286 -286 402 -410 422 -447 61 -117 57 75 57 -2734 0 -1693
-4 -2580 -11 -2609 -27 -119 -39 -133 -467 -563 -437 -438 -463 -460 -590
-487 -38 -8 -774 -11 -2605 -11 -2791 0 -2616 -3 -2731 57 -37 20 -161 137
-446 422 -217 217 -399 393 -405 392 -5 -2 -7 0 -4 4 4 3 -8 36 -27 71 -19 36
-34 72 -34 80 0 8 -4 12 -10 9 -6 -4 -9 890 -7 2627 2 2568 2 2634 21 2683 11
28 36 73 57 101 21 29 36 54 33 58 -2 3 -1 4 3 1 4 -3 174 161 377 365 204
203 389 382 411 397 22 15 69 38 105 50 l65 22 2593 1 c2582 0 2593 0 2653
-20z m-6462 -770 c0 -10 -3 -8 -9 5 -12 27 -12 43 0 25 5 -8 9 -22 9 -30z
m298 26 c4 -4 1 -6 -7 -4 -9 2 -14 -3 -12 -12 2 -8 0 -11 -4 -7 -4 4 -9 14
-10 21 -2 14 20 16 33 2z m-167 -180 c0 -2 -7 -7 -16 -10 -8 -3 -12 -2 -9 4 6
10 25 14 25 6z m-17 -41 c-3 -9 -8 -14 -10 -11 -3 3 -2 9 2 15 9 16 15 13 8
-4z m-211 -2690 c2 -1787 0 -2684 -7 -2682 -14 5 -19 5367 -5 5367 7 0 11
-907 12 -2685z m205 -1257 c-1 -695 -2 -127 -2 1262 0 1389 1 1957 2 1263 2
-695 2 -1831 0 -2525z m14 -1375 c13 -16 12 -17 -3 -4 -17 13 -22 21 -14 21 2
0 10 -8 17 -17z"/>
<path d="M38661 46538 c-300 -860 -546 -1569 -549 -1576 -3 -10 66 -12 339
-10 l343 3 117 375 116 375 561 3 561 2 40 -127 c22 -71 75 -242 117 -380 l78
-253 343 0 c189 0 343 3 343 6 0 3 -36 108 -79 232 -44 125 -133 382 -199 572
-103 295 -397 1138 -644 1845 -123 355 -160 460 -165 478 -5 16 -32 17 -392
17 l-386 0 -544 -1562z m953 905 c13 -41 96 -311 325 -1053 28 -91 51 -171 51
-178 0 -9 -89 -12 -405 -12 -319 0 -403 3 -400 13 2 6 77 246 165 532 89 286
177 571 196 633 19 61 39 112 44 112 5 0 15 -21 24 -47z"/>
<path d="M41400 46525 l0 -1575 330 0 330 0 0 1575 0 1575 -330 0 -330 0 0
-1575z"/>
<path d="M36447 49339 c-4 -16 -3 -18 9 -8 7 6 11 15 8 20 -8 13 -11 11 -17
-12z"/>
<path d="M36417 43789 c7 -7 15 -10 18 -7 3 3 -2 9 -12 12 -14 6 -15 5 -6 -5z"/>
<path d="M36018 39743 c12 -2 32 -2 45 0 12 2 2 4 -23 4 -25 0 -35 -2 -22 -4z"/>
<path d="M36123 39743 c15 -2 39 -2 55 0 15 2 2 4 -28 4 -30 0 -43 -2 -27 -4z"/>
<path d="M36010 35346 c0 -2 8 -10 18 -17 15 -13 16 -12 3 4 -13 16 -21 21
-21 13z"/>
<path d="M35735 13381 c-3 -5 -2 -12 3 -15 5 -3 9 1 9 9 0 17 -3 19 -12 6z"/>
<path d="M35805 13370 c-3 -6 1 -7 9 -4 18 7 21 14 7 14 -6 0 -13 -4 -16 -10z"/>
<path d="M35900 13201 c0 -98 4 -162 10 -166 6 -4 7 -11 4 -17 -4 -7 -2 -8 4
-4 7 4 12 2 12 -5 0 -7 3 -9 6 -6 4 4 1 14 -6 22 -12 14 -8 16 38 14 29 -2 52
-6 52 -10 0 -11 72 -51 100 -55 19 -3 22 -2 10 6 -13 8 -13 10 3 10 11 0 17 8
17 21 0 14 5 19 14 16 7 -3 19 0 25 6 8 8 11 6 11 -10 0 -16 -5 -20 -22 -17
-13 2 -17 1 -10 -2 11 -5 11 -8 0 -18 -7 -6 -11 -10 -9 -9 2 2 10 -2 18 -8 10
-9 13 -8 13 2 0 11 2 11 10 -1 9 -13 10 -13 10 0 0 13 1 13 11 0 8 -12 9 -10
4 7 -3 13 -3 28 0 34 11 16 5 264 -5 267 -6 2 -10 9 -10 15 0 8 4 7 12 -1 14
-14 72 -16 63 -2 -3 5 -12 7 -20 3 -8 -3 -15 -1 -15 5 0 10 -26 10 -52 -2 -16
-7 -18 -24 -18 -132 0 -134 2 -129 -57 -124 -16 1 -23 -4 -23 -16 0 -14 3 -15
12 -6 17 17 28 15 28 -4 0 -10 -5 -14 -16 -10 -10 4 -13 2 -8 -6 5 -7 3 -8 -6
-3 -9 6 -11 4 -5 -6 5 -8 4 -10 0 -6 -15 13 -18 36 -22 170 l-5 127 29 2 c15
1 35 2 43 4 8 1 18 2 23 3 4 1 -1 9 -10 19 -21 21 -43 18 -44 -7 0 -12 -3 -10
-9 5 -10 25 -46 38 -54 18 -3 -9 0 -11 11 -7 13 5 14 3 4 -15 -10 -18 -20 -21
-81 -21 l-70 0 0 40 c0 21 -4 39 -10 39 -6 0 -10 -60 -10 -159z m157 -175 c0
-8 -6 -12 -14 -9 -7 3 -13 9 -13 14 0 5 6 9 13 9 8 0 14 -6 14 -14z"/>
<path d="M35934 13327 c3 -12 6 -25 6 -29 0 -5 5 -8 11 -8 6 0 8 9 4 20 -4 13
-2 20 6 20 17 0 2 13 -17 16 -12 2 -14 -3 -10 -19z"/>
<path d="M36000 13329 c0 -4 6 -9 13 -12 8 -3 14 0 14 7 0 7 -6 13 -14 13 -7
0 -13 -4 -13 -8z"/>
<path d="M36170 13310 c19 -13 30 -13 30 0 0 6 -10 10 -22 10 -19 0 -20 -2 -8
-10z"/>
<path d="M35978 13303 c7 -3 16 -2 19 1 4 3 -2 6 -13 5 -11 0 -14 -3 -6 -6z"/>
<path d="M35869 13032 c9 -7 10 -11 2 -15 -7 -4 -8 -5 0 -3 15 2 13 20 -3 24
-10 3 -10 2 1 -6z"/>
<path d="M36048 12983 c7 -3 16 -2 19 1 4 3 -2 6 -13 5 -11 0 -14 -3 -6 -6z"/>
<path d="M36305 12950 c3 -5 8 -10 11 -10 2 0 4 5 4 10 0 6 -5 10 -11 10 -5 0
-7 -4 -4 -10z"/>
<path d="M29622 8342 l-23 -18 35 1 c20 1 39 5 43 9 5 4 4 7 -2 6 -21 -5 -36
0 -30 10 9 14 3 12 -23 -8z"/>
<path d="M29740 8155 c0 -152 -1 -164 -17 -159 -15 5 -16 4 -3 -5 9 -6 18 -7
24 -1 15 15 38 12 30 -2 -6 -10 -4 -10 7 0 7 6 21 12 32 12 12 0 16 -4 11 -12
-6 -10 -4 -10 7 0 7 6 30 12 51 12 38 0 38 0 38 -40 0 -22 5 -40 10 -40 7 0
10 56 8 163 l-3 162 -57 -3 c-61 -4 -70 2 -40 24 16 13 16 14 0 8 -19 -6 -25
11 -8 19 6 3 5 4 -2 3 -7 -2 -13 -10 -13 -19 0 -23 -19 -39 -38 -31 -13 5 -14
10 -6 25 7 14 6 19 -2 19 -6 0 -9 7 -5 15 3 9 0 15 -9 15 -13 0 -15 -27 -15
-165z"/>
<path d="M29968 8081 c-2 -93 0 -167 3 -165 4 2 12 -3 18 -10 10 -12 8 -13
-10 -9 -14 4 -20 2 -16 -5 8 -11 25 -11 44 1 6 4 15 2 19 -4 4 -8 3 -9 -4 -5
-7 4 -12 2 -12 -3 0 -6 7 -11 15 -11 8 0 15 4 15 9 0 10 38 3 45 -9 3 -5 -5
-6 -17 -3 -20 4 -21 3 -5 -7 9 -6 21 -9 26 -5 5 3 12 1 16 -4 3 -6 12 -8 20
-4 8 3 15 0 15 -6 0 -6 8 -11 17 -11 14 0 13 3 -5 16 -12 8 -27 12 -34 8 -7
-5 -8 -3 -3 5 4 7 15 11 24 8 10 -2 18 1 18 9 0 7 -3 11 -7 9 -3 -2 -12 0 -20
6 -13 7 -12 9 2 9 9 0 19 3 21 8 3 4 -18 8 -46 9 -35 1 -46 -1 -32 -6 11 -5
25 -6 30 -3 6 3 7 1 2 -3 -13 -15 -44 -15 -81 0 l-36 15 0 162 c0 89 2 159 5
156 3 -3 6 -23 7 -44 1 -21 3 -33 6 -26 2 6 8 12 13 12 6 0 7 -5 4 -11 -4 -5
10 -3 30 5 32 14 36 14 31 1 -4 -11 5 -14 44 -12 53 1 59 7 34 28 -13 10 -17
10 -24 -1 -11 -18 -43 -23 -36 -5 7 18 -39 25 -57 8 -12 -12 -16 -11 -28 4
-13 16 -12 17 3 5 10 -8 19 -9 22 -3 3 5 0 12 -6 15 -7 2 5 2 27 -1 22 -3 37
-2 33 2 -4 4 -23 8 -43 9 -20 2 -41 8 -47 14 -32 32 -37 14 -40 -157z"/>
<path d="M30196 8172 c-3 -5 1 -9 9 -9 8 0 15 4 15 9 0 4 -4 8 -9 8 -6 0 -12
-4 -15 -8z"/>
<path d="M30307 8133 c6 -16 5 -16 -10 -4 -15 12 -21 9 -18 -11 0 -5 -3 -8 -9
-8 -5 0 -10 5 -10 11 0 5 -4 8 -9 5 -5 -4 -8 -14 -7 -24 4 -22 46 -30 46 -8 0
9 7 17 15 17 8 1 23 2 33 3 9 0 17 -4 17 -11 0 -6 3 -14 8 -17 4 -3 5 -3 2 1
-10 13 16 31 38 25 12 -3 19 -2 16 1 -3 4 -16 9 -30 11 -13 2 -25 5 -26 7 -2
1 -11 2 -20 3 -10 1 -24 5 -30 9 -9 6 -11 3 -6 -10z"/>
<path d="M30445 8096 c17 -12 45 -12 45 1 0 3 -7 3 -15 0 -8 -4 -17 -2 -20 3
-4 6 -11 10 -18 10 -6 0 -2 -6 8 -14z"/>
<path d="M30380 8088 c0 -4 7 -8 15 -8 8 0 15 4 15 8 0 5 -7 9 -15 9 -8 0 -15
-4 -15 -9z"/>
<path d="M29456 8062 c-3 -5 1 -9 9 -9 8 0 12 4 9 9 -3 4 -7 8 -9 8 -2 0 -6
-4 -9 -8z"/>
<path d="M29530 8053 c0 -1 10 -7 21 -14 13 -6 19 -7 15 -1 -3 6 0 12 6 15 7
2 1 4 -14 3 -16 0 -28 -2 -28 -3z"/>
<path d="M29862 7969 c10 -5 22 -17 27 -27 6 -9 11 -12 11 -5 0 15 -28 43 -43
43 -7 0 -4 -5 5 -11z"/>
<path d="M29796 7959 c4 -8 30 -6 38 2 3 3 -5 5 -19 5 -13 0 -22 -3 -19 -7z"/>
<path d="M30197 7831 c-14 -5 -12 -9 13 -18 27 -10 30 -10 19 3 -10 12 -9 13
5 8 9 -3 16 -2 16 3 0 11 -29 13 -53 4z"/>
<path d="M30274 7826 c-12 -13 -8 -36 7 -36 4 0 5 7 2 17 -4 11 -3 14 5 9 7
-4 12 -3 12 3 0 16 -14 20 -26 7z"/>
<path d="M30319 7838 c-8 -29 -6 -45 6 -45 8 0 12 4 10 8 -3 4 6 2 19 -4 13
-7 22 -16 19 -21 -4 -5 -1 -6 5 -2 7 4 12 2 12 -5 0 -7 3 -9 6 -6 4 4 2 12 -3
19 -5 7 -13 21 -17 32 -5 14 -2 17 9 12 9 -3 13 -2 10 4 -3 6 -13 10 -21 10
-11 0 -14 -7 -10 -22 3 -13 3 -17 0 -10 -3 6 -15 12 -25 12 -11 0 -17 5 -14
10 3 6 4 10 1 10 -3 0 -6 -1 -7 -2z"/>
<path d="M30410 7756 c0 -2 7 -6 15 -10 8 -3 15 -1 15 4 0 6 -7 10 -15 10 -8
0 -15 -2 -15 -4z"/>
<path d="M30450 7746 c0 -2 7 -7 16 -10 8 -3 12 -2 9 4 -6 10 -25 14 -25 6z"/>
</g>
</svg>
